{"asset":{"version":"2.0","generator":"Point105-AR.GLTFExporter"},"scenes":[{"nodes":[19]}],"scene":0,"nodes":[{"matrix":[1,0,0,0,0,1,0,0,0,0,1,0,0,4.76837158203125e-7,0,1],"name":"UC_12_Open_Panel_Insert-4-solid1","mesh":2},{"matrix":[1,0,0,0,0,1,0,0,0,0,1,0,0,0,2.9802322387695312e-8,1],"name":"UC_12_V2-Trim_Bottom-1-solid1","mesh":1,"children":[0]},{"matrix":[1,0,0,0,0,1,0,0,0,0,1,0,-2.8693136755464366e-7,5.079273700714111,6.564224720001221,1],"name":"UC_12_Open_Fold_Panel_Insert-1-solid1","mesh":4},{"matrix":[1,0,0,0,0,1,0,0,0,0,1,0,2.8693136755464366e-7,-5.079272270202637,-6.564223766326904,1],"name":"UC_12_V2-Folding_Side-6-solid1","mesh":3,"children":[2]},{"matrix":[1,0,0,0,0,1,0,0,0,0,1,0,2.869514048597921e-7,5.066430568695068,-6.5646820068359375,1],"name":"UC_12_Open_Fold_Panel_Insert-3-solid1","mesh":6},{"matrix":[1,0,0,0,0,1,0,0,0,0,1,0,-2.869514048597921e-7,-5.06643009185791,6.564682960510254,1],"name":"UC_12_V2-Folding_Side-1-solid1","mesh":5,"children":[4]},{"matrix":[1,0,0,0,0,0.9999999999999867,1.6292068500417887e-7,0,0,-1.6292068500417887e-7,0.9999999999999867,0,5.960464477539063e-8,-0.08551311492919922,2.98023223871717e-7,1],"name":"UC_12_V2-Frame-1-solid1","mesh":0,"children":[1,3,5]},{"matrix":[1,0,0,0,0,1,0,0,0,0,1,0,6.562809944152832,-5.679946422576904,8.940696716308594e-7,1],"name":"UC_12_Open_Panel_Insert-1-solid1","mesh":9},{"matrix":[1,0,0,0,0,1,0,0,0,0,1,0,-6.562809944152832,-0.1325540542602539,-2.9802322387695312e-8,1],"name":"UC_12_V2-Swinging_Side-2-solid1","mesh":8,"children":[7]},{"matrix":[1,0,0,0,0,1,0,0,0,0,1,0,-6.572048187255859,-5.675985336303711,8.940696716308594e-7,1],"name":"UC_12_Open_Panel_Insert-2-solid1","mesh":11},{"matrix":[1,0,0,0,0,1,0,0,0,0,1,0,6.572048187255859,-0.13651466369628906,-2.9802322387695312e-8,1],"name":"UC_12_V2-Swinging_Side-1-solid1","mesh":10,"children":[9]},{"matrix":[1,0,0,0,0,1,0,0,0,0,1,0,-2.8696837262032204e-7,-5.053075313568115,6.565072059631348,1],"name":"UC_12_Open_Fold_Panel_Insert-2-solid1","mesh":13},{"matrix":[1,0,0,0,0,1,0,0,0,0,1,0,2.8696837262032204e-7,-0.759425163269043,-6.565071105957031,1],"name":"UC_12_V2-Folding_Side-7-solid1","mesh":12,"children":[11]},{"matrix":[1,0,0,0,0,1,0,0,0,0,1,0,2.863377233097708e-7,-5.011178493499756,-6.550642490386963,1],"name":"UC_12_Open_Fold_Panel_Insert-4-solid1","mesh":15},{"matrix":[1,0,0,0,0,1,0,0,0,0,1,0,-2.863377233097708e-7,-0.8013219833374023,6.550643444061279,1],"name":"UC_12_V2-Folding_Side-3-solid1","mesh":14,"children":[13]},{"matrix":[1,0,0,0,0,1,1.4210854715202004e-14,0,0,-1.4210854715202004e-14,1,0,-2.8410781283128017e-7,-6.707406044006348,6.499630451202393,1],"name":"UC_12_Open_Panel_Insert-3-solid1","mesh":18},{"matrix":[1,0,0,0,0,1,0,0,0,0,1,0,2.8410781283128017e-7,6.707408428192139,-6.499629497528076,1],"name":"UC_12_V2-Flip_Lid_Parts-2-solid1","mesh":17,"children":[15]},{"matrix":[1,0,0,0,0,1,0,0,0,0,1,0,0,-5.812500476837158,8.642673492431641e-7,1],"name":"UC_12_V2-Flip_Lid_Parts-1-solid1","mesh":16,"children":[16]},{"matrix":[1,0,0,0,0,0.9999999999999867,1.6292068500417887e-7,0,0,-1.6292068500417887e-7,0.9999999999999867,0,5.960464477539063e-8,5.726987838745117,5.364418033291925e-7,1],"name":"UC_12_V2-Frame-2-solid1","mesh":7,"children":[8,10,12,14,17]},{"matrix":[0.025400000000000002,0,0,0,0,0.025400000000000002,0,0,0,0,0.025400000000000002,0,-1.513957977294922e-9,0.17673741950988772,-0.008490615463256837,1],"name":"Point001","children":[6,18]}],"bufferViews":[{"buffer":0,"byteOffset":0,"byteLength":1754208,"target":34962,"byteStride":12},{"buffer":0,"byteOffset":1754208,"byteLength":1754208,"target":34962,"byteStride":12},{"buffer":0,"byteOffset":3508416,"byteLength":1169472,"target":34962,"byteStride":8},{"buffer":0,"byteOffset":4677888,"byteLength":584736,"target":34963},{"buffer":0,"byteOffset":5262624,"byteLength":349200,"target":34962,"byteStride":12},{"buffer":0,"byteOffset":5611824,"byteLength":349200,"target":34962,"byteStride":12},{"buffer":0,"byteOffset":5961024,"byteLength":232800,"target":34962,"byteStride":8},{"buffer":0,"byteOffset":6193824,"byteLength":58200,"target":34963},{"buffer":0,"byteOffset":6252024,"byteLength":229824,"target":34962,"byteStride":12},{"buffer":0,"byteOffset":6481848,"byteLength":229824,"target":34962,"byteStride":12},{"buffer":0,"byteOffset":6711672,"byteLength":153216,"target":34962,"byteStride":8},{"buffer":0,"byteOffset":6864888,"byteLength":38304,"target":34963},{"buffer":0,"byteOffset":6903192,"byteLength":136944,"target":34962,"byteStride":12},{"buffer":0,"byteOffset":7040136,"byteLength":136944,"target":34962,"byteStride":12},{"buffer":0,"byteOffset":7177080,"byteLength":91296,"target":34962,"byteStride":8},{"buffer":0,"byteOffset":7268376,"byteLength":22824,"target":34963},{"buffer":0,"byteOffset":7291200,"byteLength":811548,"target":34962,"byteStride":12},{"buffer":0,"byteOffset":8102748,"byteLength":811548,"target":34962,"byteStride":12},{"buffer":0,"byteOffset":8914296,"byteLength":541032,"target":34962,"byteStride":8},{"buffer":0,"byteOffset":9455328,"byteLength":270516,"target":34963},{"buffer":0,"byteOffset":9725844,"byteLength":137016,"target":34962,"byteStride":12},{"buffer":0,"byteOffset":9862860,"byteLength":137016,"target":34962,"byteStride":12},{"buffer":0,"byteOffset":9999876,"byteLength":91344,"target":34962,"byteStride":8},{"buffer":0,"byteOffset":10091220,"byteLength":22836,"target":34963},{"buffer":0,"byteOffset":10114056,"byteLength":835560,"target":34962,"byteStride":12},{"buffer":0,"byteOffset":10949616,"byteLength":835560,"target":34962,"byteStride":12},{"buffer":0,"byteOffset":11785176,"byteLength":557040,"target":34962,"byteStride":8},{"buffer":0,"byteOffset":12342216,"byteLength":278520,"target":34963},{"buffer":0,"byteOffset":12620736,"byteLength":1754208,"target":34962,"byteStride":12},{"buffer":0,"byteOffset":14374944,"byteLength":1754208,"target":34962,"byteStride":12},{"buffer":0,"byteOffset":16129152,"byteLength":1169472,"target":34962,"byteStride":8},{"buffer":0,"byteOffset":17298624,"byteLength":584736,"target":34963},{"buffer":0,"byteOffset":17883360,"byteLength":267480,"target":34962,"byteStride":12},{"buffer":0,"byteOffset":18150840,"byteLength":267480,"target":34962,"byteStride":12},{"buffer":0,"byteOffset":18418320,"byteLength":178320,"target":34962,"byteStride":8},{"buffer":0,"byteOffset":18596640,"byteLength":44580,"target":34963},{"buffer":0,"byteOffset":18641220,"byteLength":229248,"target":34962,"byteStride":12},{"buffer":0,"byteOffset":18870468,"byteLength":229248,"target":34962,"byteStride":12},{"buffer":0,"byteOffset":19099716,"byteLength":152832,"target":34962,"byteStride":8},{"buffer":0,"byteOffset":19252548,"byteLength":38208,"target":34963},{"buffer":0,"byteOffset":19290756,"byteLength":267048,"target":34962,"byteStride":12},{"buffer":0,"byteOffset":19557804,"byteLength":267048,"target":34962,"byteStride":12},{"buffer":0,"byteOffset":19824852,"byteLength":178032,"target":34962,"byteStride":8},{"buffer":0,"byteOffset":20002884,"byteLength":44508,"target":34963},{"buffer":0,"byteOffset":20047392,"byteLength":229608,"target":34962,"byteStride":12},{"buffer":0,"byteOffset":20277000,"byteLength":229608,"target":34962,"byteStride":12},{"buffer":0,"byteOffset":20506608,"byteLength":153072,"target":34962,"byteStride":8},{"buffer":0,"byteOffset":20659680,"byteLength":38268,"target":34963},{"buffer":0,"byteOffset":20697948,"byteLength":136944,"target":34962,"byteStride":12},{"buffer":0,"byteOffset":20834892,"byteLength":136944,"target":34962,"byteStride":12},{"buffer":0,"byteOffset":20971836,"byteLength":91296,"target":34962,"byteStride":8},{"buffer":0,"byteOffset":21063132,"byteLength":22824,"target":34963},{"buffer":0,"byteOffset":21085956,"byteLength":834552,"target":34962,"byteStride":12},{"buffer":0,"byteOffset":21920508,"byteLength":834552,"target":34962,"byteStride":12},{"buffer":0,"byteOffset":22755060,"byteLength":556368,"target":34962,"byteStride":8},{"buffer":0,"byteOffset":23311428,"byteLength":278184,"target":34963},{"buffer":0,"byteOffset":23589612,"byteLength":137088,"target":34962,"byteStride":12},{"buffer":0,"byteOffset":23726700,"byteLength":137088,"target":34962,"byteStride":12},{"buffer":0,"byteOffset":23863788,"byteLength":91392,"target":34962,"byteStride":8},{"buffer":0,"byteOffset":23955180,"byteLength":22848,"target":34963},{"buffer":0,"byteOffset":23978028,"byteLength":834840,"target":34962,"byteStride":12},{"buffer":0,"byteOffset":24812868,"byteLength":834840,"target":34962,"byteStride":12},{"buffer":0,"byteOffset":25647708,"byteLength":556560,"target":34962,"byteStride":8},{"buffer":0,"byteOffset":26204268,"byteLength":278280,"target":34963},{"buffer":0,"byteOffset":26482548,"byteLength":264600,"target":34962,"byteStride":12},{"buffer":0,"byteOffset":26747148,"byteLength":264600,"target":34962,"byteStride":12},{"buffer":0,"byteOffset":27011748,"byteLength":176400,"target":34962,"byteStride":8},{"buffer":0,"byteOffset":27188148,"byteLength":44100,"target":34963},{"buffer":0,"byteOffset":27232248,"byteLength":363312,"target":34962,"byteStride":12},{"buffer":0,"byteOffset":27595560,"byteLength":363312,"target":34962,"byteStride":12},{"buffer":0,"byteOffset":27958872,"byteLength":242208,"target":34962,"byteStride":8},{"buffer":0,"byteOffset":28201080,"byteLength":60552,"target":34963},{"buffer":0,"byteOffset":28261632,"byteLength":229824,"target":34962,"byteStride":12},{"buffer":0,"byteOffset":28491456,"byteLength":229824,"target":34962,"byteStride":12},{"buffer":0,"byteOffset":28721280,"byteLength":153216,"target":34962,"byteStride":8},{"buffer":0,"byteOffset":28874496,"byteLength":38304,"target":34963}],"buffers":[{"byteLength":28912800,"uri":"UC12.bin"}],"accessors":[{"bufferView":0,"componentType":5126,"count":146184,"max":[6.862500190734863,-4.8125,6.862500190734863],"min":[-6.862500190734863,-6.8125,-6.862500190734863],"type":"VEC3"},{"bufferView":1,"componentType":5126,"count":146184,"max":[1,1,1],"min":[-1,-1,-1],"type":"VEC3"},{"bufferView":2,"componentType":5126,"count":146184,"max":[5.653289318084717,4.751386642456055],"min":[-5.653289318084717,-4.653289318084717],"type":"VEC2"},{"bufferView":3,"componentType":5125,"count":146184,"max":[146183],"min":[0],"type":"SCALAR"},{"bufferView":4,"componentType":5126,"count":29100,"max":[6.697500228881836,-4.925000190734863,6.697500228881836],"min":[-6.697500228881836,-6.862500190734863,-6.697500228881836],"type":"VEC3"},{"bufferView":5,"componentType":5126,"count":29100,"max":[1,1,1],"min":[-1,-1,-1],"type":"VEC3"},{"bufferView":6,"componentType":5126,"count":29100,"max":[4.220937728881836,7.094897270202637],"min":[-4.220622539520264,-33.24892044067383],"type":"VEC2"},{"bufferView":7,"componentType":5123,"count":29100,"max":[29099],"min":[0],"type":"SCALAR"},{"bufferView":8,"componentType":5126,"count":19152,"max":[4.101571083068848,-6.3125,4.101571083068848],"min":[-4.101571083068848,-6.6875,-4.101571083068848],"type":"VEC3"},{"bufferView":9,"componentType":5126,"count":19152,"max":[0.9999619126319885,1,0.9999619126319885],"min":[-0.9999619126319885,-1,-0.9999619126319885],"type":"VEC3"},{"bufferView":10,"componentType":5126,"count":19152,"max":[4.115256309509277,4.552784442901611],"min":[-4.79430627822876,-55.6840934753418],"type":"VEC2"},{"bufferView":11,"componentType":5123,"count":19152,"max":[19151],"min":[0],"type":"SCALAR"},{"bufferView":12,"componentType":5126,"count":11412,"max":[6.7024993896484375,5.179272174835205,0.5017247200012207],"min":[-6.702500343322754,-0.12822771072387695,-0.2482752799987793],"type":"VEC3"},{"bufferView":13,"componentType":5126,"count":11412,"max":[1,1,1],"min":[-1,-1,-1],"type":"VEC3"},{"bufferView":14,"componentType":5126,"count":11412,"max":[10.60180950164795,8.330211639404297],"min":[-5.591465950012207,-43.88687515258789],"type":"VEC2"},{"bufferView":15,"componentType":5123,"count":11412,"max":[11411],"min":[0],"type":"SCALAR"},{"bufferView":16,"componentType":5126,"count":67629,"max":[4.101571083068848,5.540953268857573e-15,-6.3125],"min":[-4.101571083068848,-4.101571083068848,-6.6875],"type":"VEC3"},{"bufferView":17,"componentType":5126,"count":67629,"max":[0.9999619126319885,1,1],"min":[-0.9999619126319885,-1,-1],"type":"VEC3"},{"bufferView":18,"componentType":5126,"count":67629,"max":[5.180063247680664,6.362736225128174],"min":[-2.589155435562134,-70.67789459228516],"type":"VEC2"},{"bufferView":19,"componentType":5125,"count":67629,"max":[67628],"min":[0],"type":"SCALAR"},{"bufferView":20,"componentType":5126,"count":11418,"max":[6.702500343322754,5.166430950164795,0.2478170394897461],"min":[-6.7024993896484375,-0.1410689353942871,-0.5021829605102539],"type":"VEC3"},{"bufferView":21,"componentType":5126,"count":11418,"max":[1,1,1],"min":[-1,-1,-1],"type":"VEC3"},{"bufferView":22,"componentType":5126,"count":11418,"max":[10.60180950164795,8.330211639404297],"min":[-5.591465950012207,-43.88687515258789],"type":"VEC2"},{"bufferView":23,"componentType":5123,"count":11418,"max":[11417],"min":[0],"type":"SCALAR"},{"bufferView":24,"componentType":5126,"count":69630,"max":[4.101571083068848,1.884235972002095e-14,6.6875],"min":[-4.101571083068848,-4.101571083068848,6.3125],"type":"VEC3"},{"bufferView":25,"componentType":5126,"count":69630,"max":[0.9999619126319885,1,1],"min":[-0.9999619126319885,-1,-1],"type":"VEC3"},{"bufferView":26,"componentType":5126,"count":69630,"max":[5.184364318847656,7.062662124633789],"min":[-2.6810414791107178,-70.67789459228516],"type":"VEC2"},{"bufferView":27,"componentType":5125,"count":69630,"max":[69629],"min":[0],"type":"SCALAR"},{"bufferView":28,"componentType":5126,"count":146184,"max":[6.862500190734863,1,6.862500190734863],"min":[-6.862500190734863,-1,-6.862500190734863],"type":"VEC3"},{"bufferView":29,"componentType":5126,"count":146184,"max":[1,1,1],"min":[-1,-1,-1],"type":"VEC3"},{"bufferView":30,"componentType":5126,"count":146184,"max":[5.653289318084717,6.653289318084717],"min":[-5.653289318084717,-2.7513864040374756],"type":"VEC2"},{"bufferView":31,"componentType":5125,"count":146184,"max":[146183],"min":[0],"type":"SCALAR"},{"bufferView":32,"componentType":5126,"count":22290,"max":[0.25030994415283203,0.16255426406860352,6.302499771118164],"min":[-0.1496901512145996,-11.622446060180664,-6.302499771118164],"type":"VEC3"},{"bufferView":33,"componentType":5126,"count":22290,"max":[1,1,1],"min":[-1,-1,-1],"type":"VEC3"},{"bufferView":34,"componentType":5126,"count":22290,"max":[15.44444751739502,5.710116386413574],"min":[-4.710116386413574,-36.79889678955078],"type":"VEC2"},{"bufferView":35,"componentType":5123,"count":22290,"max":[22289],"min":[0],"type":"SCALAR"},{"bufferView":36,"componentType":5126,"count":19104,"max":[-6.3125,4.101571083068848,4.101571083068848],"min":[-6.6875,-4.101571083068848,-4.101571083068848],"type":"VEC3"},{"bufferView":37,"componentType":5126,"count":19104,"max":[1,0.9999619126319885,0.9999619126319885],"min":[-1,-0.9999619126319885,-0.9999619126319885],"type":"VEC3"},{"bufferView":38,"componentType":5126,"count":19104,"max":[4.115256309509277,5.793576240539551],"min":[-3.5535964965820312,-55.6840934753418],"type":"VEC2"},{"bufferView":39,"componentType":5123,"count":19104,"max":[19103],"min":[0],"type":"SCALAR"},{"bufferView":40,"componentType":5126,"count":22254,"max":[0.14045190811157227,0.16651535034179688,6.302499771118164],"min":[-0.2595481872558594,-11.618484497070312,-6.302499771118164],"type":"VEC3"},{"bufferView":41,"componentType":5126,"count":22254,"max":[1,1,1],"min":[-1,-1,-1],"type":"VEC3"},{"bufferView":42,"componentType":5126,"count":22254,"max":[15.44444751739502,6.625926971435547],"min":[-4.710116386413574,-36.79889678955078],"type":"VEC2"},{"bufferView":43,"componentType":5123,"count":22254,"max":[22253],"min":[0],"type":"SCALAR"},{"bufferView":44,"componentType":5126,"count":19134,"max":[6.6875,4.101571083068848,4.101571083068848],"min":[6.3125,-4.101571083068848,-4.101571083068848],"type":"VEC3"},{"bufferView":45,"componentType":5126,"count":19134,"max":[1,0.9999619126319885,0.9999619126319885],"min":[-1,-0.9999619126319885,-0.9999619126319885],"type":"VEC3"},{"bufferView":46,"componentType":5126,"count":19134,"max":[4.115256309509277,5.7944560050964355],"min":[-3.919119119644165,-55.6840934753418],"type":"VEC2"},{"bufferView":47,"componentType":5123,"count":19134,"max":[19133],"min":[0],"type":"SCALAR"},{"bufferView":48,"componentType":5126,"count":11412,"max":[6.7024993896484375,0.15442657470703125,0.5025711059570312],"min":[-6.702500343322754,-5.153073310852051,-0.24742889404296875],"type":"VEC3"},{"bufferView":49,"componentType":5126,"count":11412,"max":[1,1,1],"min":[-1,-1,-1],"type":"VEC3"},{"bufferView":50,"componentType":5126,"count":11412,"max":[5.591465950012207,6.3986406326293945],"min":[-10.60180950164795,-43.88687515258789],"type":"VEC2"},{"bufferView":51,"componentType":5123,"count":11412,"max":[11411],"min":[0],"type":"SCALAR"},{"bufferView":52,"componentType":5126,"count":69546,"max":[4.101571083068848,4.101571083068848,-6.3125],"min":[-4.101571083068848,1.4740750937589087e-12,-6.6875],"type":"VEC3"},{"bufferView":53,"componentType":5126,"count":69546,"max":[0.9999619126319885,1,1],"min":[-0.9999619126319885,-1,-1],"type":"VEC3"},{"bufferView":54,"componentType":5126,"count":69546,"max":[5.184364318847656,5.471052169799805],"min":[-2.6810414791107178,-70.67789459228516],"type":"VEC2"},{"bufferView":55,"componentType":5125,"count":69546,"max":[69545],"min":[0],"type":"SCALAR"},{"bufferView":56,"componentType":5126,"count":11424,"max":[6.702500343322754,0.19632244110107422,0.2618565559387207],"min":[-6.7024993896484375,-5.111177444458008,-0.4881434440612793],"type":"VEC3"},{"bufferView":57,"componentType":5126,"count":11424,"max":[1,1,1],"min":[-1,-1,-1],"type":"VEC3"},{"bufferView":58,"componentType":5126,"count":11424,"max":[5.591465950012207,3.7855489253997803],"min":[-10.60180950164795,-43.88687515258789],"type":"VEC2"},{"bufferView":59,"componentType":5123,"count":11424,"max":[11423],"min":[0],"type":"SCALAR"},{"bufferView":60,"componentType":5126,"count":69570,"max":[4.101571083068848,4.101571083068848,6.6875],"min":[-4.101571083068848,-1.716155497333456e-14,6.3125],"type":"VEC3"},{"bufferView":61,"componentType":5126,"count":69570,"max":[0.9999619126319885,1,1],"min":[-0.9999619126319885,-1,-1],"type":"VEC3"},{"bufferView":62,"componentType":5126,"count":69570,"max":[5.184364318847656,5.955785274505615],"min":[-2.6810414791107178,-70.67789459228516],"type":"VEC2"},{"bufferView":63,"componentType":5125,"count":69570,"max":[69569],"min":[0],"type":"SCALAR"},{"bufferView":64,"componentType":5126,"count":22050,"max":[6.697500228881836,6.8125,6.697500228881836],"min":[-6.697500228881836,4.925000190734863,-6.697500228881836],"type":"VEC3"},{"bufferView":65,"componentType":5126,"count":22050,"max":[1,1,1],"min":[-1,-1,-1],"type":"VEC3"},{"bufferView":66,"componentType":5126,"count":22050,"max":[4.20440149307251,3.110867977142334],"min":[-2.110867977142334,-5.120142936706543],"type":"VEC2"},{"bufferView":67,"componentType":5123,"count":22050,"max":[22049],"min":[0],"type":"SCALAR"},{"bufferView":68,"componentType":5126,"count":30276,"max":[6.44249963760376,0.0775914192199707,12.942129135131836],"min":[-6.442500591278076,-0.39490842819213867,-0.08787107467651367],"type":"VEC3"},{"bufferView":69,"componentType":5126,"count":30276,"max":[1,1,1],"min":[-1,-1,-1],"type":"VEC3"},{"bufferView":70,"componentType":5126,"count":30276,"max":[4.176295280456543,6442.08740234375],"min":[-4.1192240715026855,-34.58750915527344],"type":"VEC2"},{"bufferView":71,"componentType":5123,"count":30276,"max":[30275],"min":[0],"type":"SCALAR"},{"bufferView":72,"componentType":5126,"count":19152,"max":[4.101571083068848,6.6875,4.101571083068848],"min":[-4.101571083068848,6.3125,-4.101571083068848],"type":"VEC3"},{"bufferView":73,"componentType":5126,"count":19152,"max":[0.9999619126319885,1,0.9999619126319885],"min":[-0.9999619126319885,-1,-0.9999619126319885],"type":"VEC3"},{"bufferView":74,"componentType":5126,"count":19152,"max":[4.79430627822876,3.120213031768799],"min":[-3.919119119644165,-55.6840934753418],"type":"VEC2"},{"bufferView":75,"componentType":5123,"count":19152,"max":[19151],"min":[0],"type":"SCALAR"}],"materials":[{"pbrMetallicRoughness":{"baseColorFactor":[0.003921568859368563,0.003921568859368563,0.003921568859368563,1],"metallicFactor":0,"roughnessFactor":0.30000001192092896},"name":"black frosted"}],"meshes":[{"primitives":[{"mode":4,"attributes":{"POSITION":0,"NORMAL":1,"TEXCOORD_0":2},"indices":3,"material":0}]},{"primitives":[{"mode":4,"attributes":{"POSITION":4,"NORMAL":5,"TEXCOORD_0":6},"indices":7,"material":0}]},{"primitives":[{"mode":4,"attributes":{"POSITION":8,"NORMAL":9,"TEXCOORD_0":10},"indices":11,"material":0}]},{"primitives":[{"mode":4,"attributes":{"POSITION":12,"NORMAL":13,"TEXCOORD_0":14},"indices":15,"material":0}]},{"primitives":[{"mode":4,"attributes":{"POSITION":16,"NORMAL":17,"TEXCOORD_0":18},"indices":19,"material":0}]},{"primitives":[{"mode":4,"attributes":{"POSITION":20,"NORMAL":21,"TEXCOORD_0":22},"indices":23,"material":0}]},{"primitives":[{"mode":4,"attributes":{"POSITION":24,"NORMAL":25,"TEXCOORD_0":26},"indices":27,"material":0}]},{"primitives":[{"mode":4,"attributes":{"POSITION":28,"NORMAL":29,"TEXCOORD_0":30},"indices":31,"material":0}]},{"primitives":[{"mode":4,"attributes":{"POSITION":32,"NORMAL":33,"TEXCOORD_0":34},"indices":35,"material":0}]},{"primitives":[{"mode":4,"attributes":{"POSITION":36,"NORMAL":37,"TEXCOORD_0":38},"indices":39,"material":0}]},{"primitives":[{"mode":4,"attributes":{"POSITION":40,"NORMAL":41,"TEXCOORD_0":42},"indices":43,"material":0}]},{"primitives":[{"mode":4,"attributes":{"POSITION":44,"NORMAL":45,"TEXCOORD_0":46},"indices":47,"material":0}]},{"primitives":[{"mode":4,"attributes":{"POSITION":48,"NORMAL":49,"TEXCOORD_0":50},"indices":51,"material":0}]},{"primitives":[{"mode":4,"attributes":{"POSITION":52,"NORMAL":53,"TEXCOORD_0":54},"indices":55,"material":0}]},{"primitives":[{"mode":4,"attributes":{"POSITION":56,"NORMAL":57,"TEXCOORD_0":58},"indices":59,"material":0}]},{"primitives":[{"mode":4,"attributes":{"POSITION":60,"NORMAL":61,"TEXCOORD_0":62},"indices":63,"material":0}]},{"primitives":[{"mode":4,"attributes":{"POSITION":64,"NORMAL":65,"TEXCOORD_0":66},"indices":67,"material":0}]},{"primitives":[{"mode":4,"attributes":{"POSITION":68,"NORMAL":69,"TEXCOORD_0":70},"indices":71,"material":0}]},{"primitives":[{"mode":4,"attributes":{"POSITION":72,"NORMAL":73,"TEXCOORD_0":74},"indices":75,"material":0}]}]}